<svg xmlns="http://www.w3.org/2000/svg" viewBox="0 0 1000 780" role="img" aria-labelledby="t d"><title id="t">World-ready sample villa first floor</title><desc id="d">Editable metric SVG generated from the sample villa program.</desc><style>text{font-family:Arial,sans-serif;fill:#17212b}.room{stroke:#24384a;stroke-width:3}.family{fill:#e4f1eb}.shared{fill:#f2f2f2}.ext{fill:#fff;stroke-dasharray:8 6}.label{font-size:18px;font-weight:700;text-anchor:middle}.area{font-size:14px;text-anchor:middle;fill:#56616c}.wall{stroke:#17212b;stroke-width:10}.window{stroke:#1687b5;stroke-width:10}.door{fill:none;stroke:#9a5d2d;stroke-width:3}</style><rect width="1000" height="780" fill="#fff"/><text x="50" y="48" font-size="28" font-weight="800">World-Ready Courtyard Villa — First Floor</text><text x="50" y="76" font-size="16">Editable SVG • bedrooms • family lounge • aligned vertical core</text><g transform="translate(60 110)"><rect class="room family" x="0" y="0" width="250" height="225"/><rect class="room family" x="250" y="0" width="125" height="225"/><rect class="room family" x="375" y="0" width="125" height="225"/><rect class="room family" x="500" y="0" width="225" height="225"/><rect class="room shared" x="725" y="0" width="100" height="225"/><rect class="room shared" x="825" y="110" width="75" height="115"/><rect class="room family" x="825" y="0" width="75" height="110"/><rect class="room family" x="0" y="225" width="900" height="75"/><rect class="room family" x="0" y="300" width="225" height="250"/><rect class="room family" x="225" y="300" width="100" height="150"/><rect class="room family" x="225" y="450" width="100" height="100"/><rect class="room family" x="325" y="300" width="225" height="250"/><rect class="room family" x="550" y="300" width="100" height="150"/><rect class="room family" x="550" y="450" width="100" height="100"/><rect class="room family" x="650" y="300" width="250" height="250"/><rect class="room ext" x="0" y="550" width="450" height="150"/><rect class="room ext" x="450" y="550" width="450" height="150"/><path class="wall" d="M0 0H900V550H0Z M0 225H900 M0 300H900 M0 550H900 M250 0V225 M375 0V225 M500 0V225 M725 0V225 M825 0V225 M225 300V550 M325 300V550 M550 300V550 M650 300V550 M225 450H325 M550 450H650" fill="none"/><path class="window" d="M35 0H120 M530 0H620 M0 360V450 M900 360V450"/><path class="door" d="M250 190h45a45 45 0 0 0-45-45M500 190h45a45 45 0 0 1-45-45M325 260h45a45 45 0 0 0-45-45"/><g><text class="label" x="125" y="105">Master Bedroom</text><text class="area" x="125" y="130">22.50 m²</text><text class="label" x="612" y="105">Family Lounge</text><text class="area" x="612" y="130">20.25 m²</text><text class="label" x="450" y="270">Upper Corridor</text><text class="area" x="450" y="290">27.00 m²</text><text class="label" x="112" y="410">Bedroom 2</text><text class="area" x="112" y="435">22.50 m²</text><text class="label" x="438" y="410">Bedroom 3</text><text class="area" x="438" y="435">22.50 m²</text><text class="label" x="775" y="410">Bedroom 4</text><text class="area" x="775" y="435">25.00 m²</text><text class="label" x="225" y="625">Front Balcony</text><text class="area" x="225" y="650">27.00 m²</text><text class="label" x="675" y="625">Upper Terrace</text><text class="area" x="675" y="650">27.00 m²</text></g></g><g transform="translate(920 135)"><path d="M0 60V0M0 0l-10 20M0 0l10 20" stroke="#111" stroke-width="4" fill="none"/><text x="0" y="82" text-anchor="middle" font-size="18" font-weight="700">N</text></g><g transform="translate(60 750)"><path d="M0 0H250" stroke="#111" stroke-width="6"/><path d="M0-8V8M50-8V8M100-8V8M150-8V8M200-8V8M250-8V8" stroke="#111"/><text x="0" y="24" font-size="13">0    1    2    3    4    5 m</text></g></svg>